<?xml version="1.0" encoding="iso-8859-1"?>
<!-- Uploaded to: SVG Repo, www.svgrepo.com, Generator: SVG Repo Mixer Tools -->
<svg height="800px" width="800px" version="1.1" id="Capa_1" xmlns="http://www.w3.org/2000/svg" xmlns:xlink="http://www.w3.org/1999/xlink" 
	 viewBox="0 0 61.88 61.88" xml:space="preserve">
<g>
	<g>
		<path style="fill:#010002;" d="M60.611,40.597c-7.895-6.408-14.285-14.191-19.657-22.79c-0.409-0.653-0.919-1.102-1.476-1.382
			c-1.896-1.61-4.789-2.098-7.125,0.082c-4.523,4.218-9.124,8.257-14.034,12.021c-0.607,0.465-1.134,1.004-1.554,1.594
			c-0.325,0.124-0.638,0.294-0.917,0.533c-4.134,3.55-8.976,7.069-14.394,10.461c-1.45,0.908-1.889,2.819-0.98,4.271
			c0.588,0.938,1.596,1.453,2.628,1.453c0.562,0,1.13-0.152,1.641-0.473c4.768-2.986,9.116-6.076,12.977-9.213
			c1.678,1.305,4.19,1.794,5.931,0.458c4.796-3.674,9.372-7.51,13.833-11.55c5.051,7.365,10.91,14.143,17.869,19.793
			C59.041,48.848,64.335,43.621,60.611,40.597z"/>
		<circle style="fill:#010002;" cx="13.609" cy="25.026" r="5.343"/>
	</g>
</g>
</svg>