<?xml version="1.0" encoding="iso-8859-1"?>
<!-- Uploaded to: SVG Repo, www.svgrepo.com, Generator: SVG Repo Mixer Tools -->
<svg fill="#000000" height="800px" width="800px" version="1.1" id="Layer_1" xmlns="http://www.w3.org/2000/svg" xmlns:xlink="http://www.w3.org/1999/xlink" 
	 viewBox="0 0 512 512" xml:space="preserve">
<g>
	<g>
		<path d="M509.391,351.575l-60.168-113.075c-5.717-10.749-19.068-14.824-29.819-9.107c-10.749,5.719-14.827,19.071-9.106,29.82
			l42.925,80.672h-0.443l0.374,0.53h-86.344l2.183-0.53l50.395-12.236l-30.385-57.104c-11.979-22.511-3.439-50.468,19.072-62.446
			c6.736-3.585,13.618-5.319,20.754-5.405c-0.007-1.435,0-74.451,0-74.451c-5.344-23.743-34.206-33.454-52.944-18.037
			c-60.493,49.764-68.966,56.734-127.576,104.948l-226.285,78.11C4.964,299.15-4.091,317.753,1.797,334.81
			c5.887,17.057,24.484,26.112,41.548,20.225l231.841-80.028c3.675-1.268,7.094-3.183,10.097-5.652l108.558-89.303l-73.881,85.563
			l0.396,87.43c0.072,15.918,12.492,30.492,31.749,30.405c3.564,0.786-6.24,0.53,137.824,0.53
			C506.509,383.978,517.209,366.267,509.391,351.575z"/>
	</g>
</g>
<g>
	<g>
		<path d="M242.745,297.566c-30.885,0.14-55.727,25.327-55.588,56.094c0.14,30.84,25.254,55.727,56.094,55.587
			c30.84-0.14,55.727-25.253,55.588-56.094C298.699,322.203,273.44,297.427,242.745,297.566z"/>
	</g>
</g>
</svg>