<?xml version="1.0" encoding="iso-8859-1"?>
<!-- Uploaded to: SVG Repo, www.svgrepo.com, Generator: SVG Repo Mixer Tools -->
<!DOCTYPE svg PUBLIC "-//W3C//DTD SVG 1.1//EN" "http://www.w3.org/Graphics/SVG/1.1/DTD/svg11.dtd">
<svg fill="#000000" height="800px" width="800px" version="1.1" id="Capa_1" xmlns="http://www.w3.org/2000/svg" xmlns:xlink="http://www.w3.org/1999/xlink" 
	 viewBox="0 0 459.833 459.833" xml:space="preserve">
<g id="XMLID_815_">
	<path id="XMLID_816_" d="M440.114,301.727H301.307l7.486-83.003l48.717-88.718c5.242-9.547,1.752-21.534-7.793-26.777
		c-9.546-5.24-21.534-1.752-26.777,7.793l-50.702,92.332c-1.309,2.384-2.111,5.013-2.354,7.72l-4.07,45.133l-103.215-0.64
		c-10.91-0.068-19.808,8.721-19.876,19.631l-0.222,35.894c0,0-1.674,20.088-15.556,29.396h56.834l-14.907-10.677l56.397,27.723
		c2.035,1,4.255,1.507,6.484,1.507c1.513,0,3.029-0.233,4.494-0.704l57.771-18.552c7.729-2.482,11.983-10.759,9.5-18.488
		c-2.482-7.73-10.765-11.982-18.488-9.5l-52.12,16.737l-51.068-25.103l49.095,14.768l50.899-16.345
		c6.555-2.105,13.48-1.392,19.31,1.647c5.661,2.952,10.209,8.045,12.315,14.603c2.629,8.187,0.836,16.731-4.047,23.061h130.698
		c10.891,0,19.719-8.828,19.719-19.719C459.833,310.555,451.005,301.727,440.114,301.727z"/>
	<path id="XMLID_819_" d="M46.632,311.093H14.698C6.58,311.093,0,317.673,0,325.791c0,8.118,6.58,14.698,14.698,14.698h46.561
		C52.73,332.39,47.828,322.023,46.632,311.093z"/>
	<path id="XMLID_822_" d="M94.341,272.79c-0.07,0-0.139-0.001-0.209-0.001c-18.137,0.001-32.897,14.647-33.009,32.81
		c-0.113,18.233,14.576,33.105,32.809,33.218c0.07,0.001,0.139,0.001,0.209,0.001c18.137,0,32.897-14.647,33.01-32.81
		C127.263,287.775,112.574,272.903,94.341,272.79z"/>
</g>
</svg>