<?xml version="1.0" encoding="iso-8859-1"?>
<!-- Uploaded to: SVG Repo, www.svgrepo.com, Generator: SVG Repo Mixer Tools -->
<svg height="800px" width="800px" version="1.1" id="Layer_1" xmlns="http://www.w3.org/2000/svg" xmlns:xlink="http://www.w3.org/1999/xlink" 
	 viewBox="0 0 512 512" xml:space="preserve">
<path style="fill:#F7B239;" d="M331.164,202.563c-7.995,6.189-15.533,12.848-22.589,19.904
	c-22.866,22.842-40.65,49.982-52.583,79.495c-11.921-29.513-29.717-56.653-52.571-79.495c-7.056-7.068-14.594-13.715-22.601-19.916
	c18.218-38.591,43.287-74.739,75.172-106.623C287.888,127.812,312.946,163.971,331.164,202.563z"/>
<g>
	<path style="fill:#F95428;" d="M255.992,301.961c-11.403,28.212-17.447,58.604-17.447,89.525c0,2.637,0.036,5.286,0.144,7.923
		c-24.335-60-72.27-107.587-131.934-131.705v-0.012c-1.144-32.439,4.347-65.636,17.303-97.677
		c20.831,8.417,39.832,19.434,56.761,32.535c8.007,6.201,15.545,12.848,22.601,19.916
		C226.274,245.308,244.071,272.449,255.992,301.961z"/>
	<path style="fill:#F95428;" d="M405.24,267.705c-84.745,34.257-145.841,115.895-149.236,213.15
		c-1.011-28.79-7.068-56.22-17.315-81.445c-0.108-2.637-0.144-5.286-0.144-7.923c0-30.921,6.045-61.313,17.447-89.525
		c11.933-29.513,29.717-56.653,52.583-79.495c7.056-7.056,14.594-13.715,22.589-19.904c16.942-13.113,35.942-24.13,56.785-32.547
		c12.956,32.041,18.435,65.238,17.291,97.677V267.705z"/>
</g>
<g>
	<path style="fill:#31AF0E;" d="M494.488,250.402c2.818,0,5.635,0.048,8.477,0.144c-4.6,131.801-115.172,234.908-246.961,230.309
		c3.396-97.255,64.492-178.893,149.236-213.15C432.874,256.531,463.013,250.402,494.488,250.402z"/>
	<path style="fill:#31AF0E;" d="M238.689,399.409c10.247,25.226,16.304,52.655,17.315,81.445
		C124.203,485.454,13.63,382.347,9.03,250.546c2.842-0.096,5.659-0.144,8.477-0.144c31.475,0,61.626,6.129,89.248,17.303
		C166.419,291.823,214.354,339.409,238.689,399.409z"/>
</g>
<g>
	<path style="fill:#333333;" d="M503.284,241.523c-30.681-1.073-60.701,3.437-88.907,13.074
		c-0.561-30.125-6.613-59.657-18.053-87.969c-1.869-4.623-7.125-6.857-11.757-4.99c-17.868,7.219-34.602,16.337-50.073,27.239
		c-18.572-36.63-42.787-70.01-72.118-99.331c-3.528-3.526-9.244-3.526-12.77,0.001c-29.345,29.345-53.558,62.72-72.116,99.316
		c-15.462-10.895-32.189-20.009-50.052-27.225c-4.627-1.868-9.887,0.366-11.756,4.99c-11.459,28.358-17.514,57.939-18.059,88.115
		c-27.821-9.561-57.802-14.304-88.907-13.22c-4.985,0.175-8.884,4.356-8.71,9.34c4.667,133.635,114.858,239.166,247.549,239.166
		c2.801,0,5.626-0.051,8.446-0.144c2.827,0.095,5.639,0.144,8.447,0.144c132.679,0,242.882-105.538,247.548-239.166
		C512.168,245.879,508.269,241.697,503.284,241.523z M396.349,261.558c-25.721,11.127-49.616,26.708-70.719,46.388
		c-33.781,31.501-57.575,70.871-69.666,114.263c-2.348-8.364-5.12-16.544-8.296-24.517c-0.059-1.929-0.089-3.968-0.089-6.204
		c0-29.597,5.65-58.577,16.791-86.138c11.67-28.877,28.691-54.616,50.594-76.505c19.65-19.662,42.457-35.391,67.901-46.844
		C392.1,207.699,396.624,234.393,396.349,261.558z M255.993,108.858c25.894,27.165,47.344,57.764,63.898,91.151
		c-6.132,5.051-12.04,10.402-17.699,16.065c-18.833,18.823-34.31,40.292-46.193,63.998c-11.872-23.693-27.349-45.161-46.193-63.993
		c-5.663-5.669-11.575-11.027-17.714-16.083C208.633,166.639,230.085,136.042,255.993,108.858z M129.143,182.001
		c25.446,11.455,48.25,27.185,67.891,46.848c21.086,21.074,37.623,45.703,49.224,73.233c-7.739,19.991-12.816,40.654-15.183,61.733
		c-26.621-45.203-67.137-81.123-115.419-102.079C115.36,234.51,119.886,207.755,129.143,182.001z M18.56,259.432
		c57.953,0.248,112.867,21.972,155.494,61.724c42.63,39.753,68.133,93.01,72.42,150.81C127.006,471.404,27.453,378.57,18.56,259.432
		z M265.527,471.965c4.288-57.799,29.788-111.056,72.42-150.81s97.536-61.479,155.495-61.724
		C484.546,378.577,385.005,471.415,265.527,471.965z"/>
	<circle style="fill:#333333;" cx="14.088" cy="206.106" r="9.031"/>
	<circle style="fill:#333333;" cx="124.058" cy="105.841" r="9.031"/>
	<circle style="fill:#333333;" cx="255.992" cy="31.002" r="9.031"/>
	<circle style="fill:#333333;" cx="387.949" cy="105.841" r="9.031"/>
	<circle style="fill:#333333;" cx="497.896" cy="206.106" r="9.031"/>
</g>
</svg>